ffmpeg started on 2025-06-20 at 16:41:47
Report written to "D:\Convert\FFMetrics\reports\psnr_report-6.txt"
Log level: 32
Command line:
ffmpeg -hide_banner -nostdin -i "G:\\\xc0\xed\xe8\xec\xe5\\[\xd2\xee\xef]\\\xc2\xee\xeb\xf7\xe8\xf6\xe0 \xe8 \xef\xf0\xff\xed\xee\xf1\xf2\xe8\\\xd2\xee\xf0\xe3\xee\xe2\xe5\xf6 \xe2\xf1\xf2\xf0\xe5\xf7\xe0\xe5\xf2 \xec\xf3\xe4\xf0\xf3\xfe \xe2\xee\xeb\xf7\xe8\xf6\xf3\\DC_Ookami_to_Koushinryou_Merchant_Meets_the_Wise_Wolf_02_Telegram_HEVC.mkv" -i "G:\\\xc0\xed\xe8\xec\xe5\\[\xd2\xee\xef]\\\xc2\xee\xeb\xf7\xe8\xf6\xe0 \xe8 \xef\xf0\xff\xed\xee\xf1\xf2\xe8\\\xd2\xee\xf0\xe3\xee\xe2\xe5\xf6 \xe2\xf1\xf2\xf0\xe5\xf7\xe0\xe5\xf2 \xec\xf3\xe4\xf0\xf3\xfe \xe2\xee\xeb\xf7\xe8\xf6\xf3\\DC_Ookami_to_Koushinryou_Merchant_Meets_the_Wise_Wolf_02_Telegram.mp4" -lavfi "[0:v]settb=AVTB,setpts=PTS-STARTPTS,format=pix_fmts=yuv420p10,fps=24000/1001,scale=1920:1080:flags=bicubic[main];[1:v]settb=AVTB,setpts=PTS-STARTPTS,format=pix_fmts=yuv420p,fps=24000/1001,scale=1920:1080:flags=bicubic[ref];[main][ref]psnr=eof_action=endall:stats_file='D\\:/Convert/FFMetrics/logs/psnr_logfile-6.txt'" -f null -
Input #0, matroska,webm, from 'G:\Аниме\[Топ]\Волчица и пряности\Торговец встречает мудрую волчицу\DC_Ookami_to_Koushinryou_Merchant_Meets_the_Wise_Wolf_02_Telegram_HEVC.mkv':
  Metadata:
    COMPATIBLE_BRANDS: isomiso2avc1mp41
    MAJOR_BRAND     : isom
    MINOR_VERSION   : 512
    ENCODER         : Lavf61.7.100
  Duration: 00:23:57.70, start: -0.021000, bitrate: 872 kb/s
  Stream #0:0: Video: hevc (Main 10), yuv420p10le(tv, bt709, progressive), 1920x1080 [SAR 1:1 DAR 16:9], 23.98 fps, 23.98 tbr, 1k tbn (default)
      Metadata:
        HANDLER_NAME    : VideoHandler
        VENDOR_ID       : [0][0][0][0]
        ENCODER         : Lavc61.19.100 libx265
        BPS             : 675751
        DURATION        : 00:23:56.559708333
        NUMBER_OF_FRAMES: 34443
        NUMBER_OF_BYTES : 121344634
        _STATISTICS_WRITING_APP: mkvpropedit v66.0.0 ('Josie') 64-bit
        _STATISTICS_WRITING_DATE_UTC: 2025-06-20 09:13:32
        _STATISTICS_TAGS: BPS DURATION NUMBER_OF_FRAMES NUMBER_OF_BYTES
  Stream #0:1: Audio: aac (LC), 48000 Hz, stereo, fltp (default)
      Metadata:
        HANDLER_NAME    : SoundHandler
        VENDOR_ID       : [0][0][0][0]
        ENCODER         : Lavc61.19.100 aac
        BPS             : 192867
        DURATION        : 00:23:57.696000000
        NUMBER_OF_FRAMES: 67393
        NUMBER_OF_BYTES : 34660558
        _STATISTICS_WRITING_APP: mkvpropedit v66.0.0 ('Josie') 64-bit
        _STATISTICS_WRITING_DATE_UTC: 2025-06-20 09:13:32
        _STATISTICS_TAGS: BPS DURATION NUMBER_OF_FRAMES NUMBER_OF_BYTES
Input #1, mov,mp4,m4a,3gp,3g2,mj2, from 'G:\Аниме\[Топ]\Волчица и пряности\Торговец встречает мудрую волчицу\DC_Ookami_to_Koushinryou_Merchant_Meets_the_Wise_Wolf_02_Telegram.mp4':
  Metadata:
    major_brand     : isom
    minor_version   : 512
    compatible_brands: isomiso2avc1mp41
    encoder         : Lavf60.16.100
  Duration: 00:23:57.67, start: 0.000000, bitrate: 3505 kb/s
  Stream #1:0[0x1](und): Video: h264 (High) (avc1 / 0x31637661), yuv420p(tv, bt709, progressive), 1920x1080 [SAR 1:1 DAR 16:9], 3360 kb/s, 23.98 fps, 23.98 tbr, 24k tbn (default)
      Metadata:
        handler_name    : VideoHandler
        vendor_id       : [0][0][0][0]
        encoder         : Lavc60.31.102 h264_qsv
  Stream #1:1[0x2](und): Audio: aac (HE-AACv2) (mp4a / 0x6134706D), 48000 Hz, stereo, fltp, 144 kb/s (default)
      Metadata:
        handler_name    : SoundHandler
        vendor_id       : [0][0][0][0]
Stream mapping:
  Stream #0:0 (hevc) -> settb:default
  Stream #1:0 (h264) -> settb:default
  psnr:default -> Stream #0:0 (wrapped_avframe)
  Stream #0:1 -> #0:1 (aac (native) -> pcm_s16le (native))
Output #0, null, to 'pipe:':
  Metadata:
    COMPATIBLE_BRANDS: isomiso2avc1mp41
    MAJOR_BRAND     : isom
    MINOR_VERSION   : 512
    encoder         : Lavf61.7.100
  Stream #0:0: Video: wrapped_avframe, yuv420p10le(tv, bt709, progressive), 1920x1080 [SAR 1:1 DAR 16:9], q=2-31, 200 kb/s, 23.98 fps, 23.98 tbn
      Metadata:
        encoder         : Lavc61.19.100 wrapped_avframe
  Stream #0:1: Audio: pcm_s16le, 48000 Hz, stereo, s16, 1536 kb/s (default)
      Metadata:
        HANDLER_NAME    : SoundHandler
        VENDOR_ID       : [0][0][0][0]
        _STATISTICS_TAGS: BPS DURATION NUMBER_OF_FRAMES NUMBER_OF_BYTES
        BPS             : 192867
        DURATION        : 00:23:57.696000000
        NUMBER_OF_FRAMES: 67393
        NUMBER_OF_BYTES : 34660558
        _STATISTICS_WRITING_APP: mkvpropedit v66.0.0 ('Josie') 64-bit
        _STATISTICS_WRITING_DATE_UTC: 2025-06-20 09:13:32
        encoder         : Lavc61.19.100 pcm_s16le
frame=  179 fps=0.0 q=-0.0 size=N/A time=00:00:07.46 bitrate=N/A speed=14.3x    frame=  380 fps=370 q=-0.0 size=N/A time=00:00:15.84 bitrate=N/A speed=15.4x    frame=  620 fps=399 q=-0.0 size=N/A time=00:00:25.85 bitrate=N/A speed=16.7x    frame=  844 fps=409 q=-0.0 size=N/A time=00:00:35.20 bitrate=N/A speed=17.1x    frame= 1085 fps=422 q=-0.0 size=N/A time=00:00:45.25 bitrate=N/A speed=17.6x    frame= 1345 fps=434 q=-0.0 size=N/A time=00:00:56.09 bitrate=N/A speed=18.1x    frame= 1574 fps=436 q=-0.0 size=N/A time=00:01:05.64 bitrate=N/A speed=18.2x    frame= 1814 fps=439 q=-0.0 size=N/A time=00:01:15.65 bitrate=N/A speed=18.3x    frame= 2090 fps=450 q=-0.0 size=N/A time=00:01:27.17 bitrate=N/A speed=18.8x    frame= 2339 fps=454 q=-0.0 size=N/A time=00:01:37.55 bitrate=N/A speed=18.9x    frame= 2593 fps=457 q=-0.0 size=N/A time=00:01:48.14 bitrate=N/A speed=19.1x    frame= 2795 fps=451 q=-0.0 size=N/A time=00:01:56.57 bitrate=N/A speed=18.8x    frame= 2994 fps=447 q=-0.0 size=N/A time=00:02:04.87 bitrate=N/A speed=18.6x    frame= 3177 fps=440 q=-0.0 size=N/A time=00:02:12.50 bitrate=N/A speed=18.3x    frame= 3379 fps=437 q=-0.0 size=N/A time=00:02:20.93 bitrate=N/A speed=18.2x    frame= 3590 fps=435 q=-0.0 size=N/A time=00:02:29.73 bitrate=N/A speed=18.1x    frame= 3810 fps=435 q=-0.0 size=N/A time=00:02:38.90 bitrate=N/A speed=18.1x    frame= 4037 fps=435 q=-0.0 size=N/A time=00:02:48.37 bitrate=N/A speed=18.1x    frame= 4272 fps=436 q=-0.0 size=N/A time=00:02:58.17 bitrate=N/A speed=18.2x    frame= 4518 fps=438 q=-0.0 size=N/A time=00:03:08.43 bitrate=N/A speed=18.3x    frame= 4753 fps=439 q=-0.0 size=N/A time=00:03:18.23 bitrate=N/A speed=18.3x    frame= 4962 fps=437 q=-0.0 size=N/A time=00:03:26.95 bitrate=N/A speed=18.2x    frame= 5168 fps=436 q=-0.0 size=N/A time=00:03:35.59 bitrate=N/A speed=18.2x    frame= 5402 fps=437 q=-0.0 size=N/A time=00:03:45.30 bitrate=N/A speed=18.2x    frame= 5668 fps=439 q=-0.0 size=N/A time=00:03:56.40 bitrate=N/A speed=18.3x    frame= 5928 fps=442 q=-0.0 size=N/A time=00:04:07.24 bitrate=N/A speed=18.4x    frame= 6184 fps=444 q=-0.0 size=N/A time=00:04:17.92 bitrate=N/A speed=18.5x    frame= 6430 fps=446 q=-0.0 size=N/A time=00:04:28.18 bitrate=N/A speed=18.6x    frame= 6677 fps=446 q=-0.0 size=N/A time=00:04:38.48 bitrate=N/A speed=18.6x    frame= 6928 fps=448 q=-0.0 size=N/A time=00:04:48.95 bitrate=N/A speed=18.7x    frame= 7201 fps=451 q=-0.0 size=N/A time=00:05:00.34 bitrate=N/A speed=18.8x    frame= 7469 fps=453 q=-0.0 size=N/A time=00:05:11.51 bitrate=N/A speed=18.9x    frame= 7723 fps=454 q=-0.0 size=N/A time=00:05:22.11 bitrate=N/A speed=18.9x    frame= 8007 fps=457 q=-0.0 size=N/A time=00:05:33.95 bitrate=N/A speed=  19x    frame= 8227 fps=456 q=-0.0 size=N/A time=00:05:43.13 bitrate=N/A speed=  19x    frame= 8478 fps=457 q=-0.0 size=N/A time=00:05:53.60 bitrate=N/A speed=19.1x    frame= 8749 fps=458 q=-0.0 size=N/A time=00:06:04.90 bitrate=N/A speed=19.1x    frame= 9014 fps=460 q=-0.0 size=N/A time=00:06:15.95 bitrate=N/A speed=19.2x    frame= 9279 fps=461 q=-0.0 size=N/A time=00:06:27.01 bitrate=N/A speed=19.2x    frame= 9561 fps=463 q=-0.0 size=N/A time=00:06:38.77 bitrate=N/A speed=19.3x    frame= 9838 fps=465 q=-0.0 size=N/A time=00:06:50.32 bitrate=N/A speed=19.4x    frame=10119 fps=467 q=-0.0 size=N/A time=00:07:02.04 bitrate=N/A speed=19.5x    frame=10390 fps=468 q=-0.0 size=N/A time=00:07:13.34 bitrate=N/A speed=19.5x    frame=10627 fps=468 q=-0.0 size=N/A time=00:07:23.23 bitrate=N/A speed=19.5x    frame=10895 fps=470 q=-0.0 size=N/A time=00:07:34.41 bitrate=N/A speed=19.6x    frame=11180 fps=471 q=-0.0 size=N/A time=00:07:46.29 bitrate=N/A speed=19.7x    frame=11427 fps=471 q=-0.0 size=N/A time=00:07:56.60 bitrate=N/A speed=19.7x    frame=11701 fps=473 q=-0.0 size=N/A time=00:08:08.02 bitrate=N/A speed=19.7x    frame=11996 fps=475 q=-0.0 size=N/A time=00:08:20.33 bitrate=N/A speed=19.8x    frame=12280 fps=476 q=-0.0 size=N/A time=00:08:32.17 bitrate=N/A speed=19.9x    frame=12549 fps=477 q=-0.0 size=N/A time=00:08:43.39 bitrate=N/A speed=19.9x    frame=12825 fps=478 q=-0.0 size=N/A time=00:08:54.90 bitrate=N/A speed=19.9x    frame=13103 fps=479 q=-0.0 size=N/A time=00:09:06.50 bitrate=N/A speed=  20x    frame=13375 fps=480 q=-0.0 size=N/A time=00:09:17.84 bitrate=N/A speed=  20x    frame=13665 fps=482 q=-0.0 size=N/A time=00:09:29.94 bitrate=N/A speed=20.1x    frame=13934 fps=483 q=-0.0 size=N/A time=00:09:41.16 bitrate=N/A speed=20.1x    frame=14204 fps=483 q=-0.0 size=N/A time=00:09:52.42 bitrate=N/A speed=20.2x    frame=14476 fps=484 q=-0.0 size=N/A time=00:10:03.76 bitrate=N/A speed=20.2x    frame=14735 fps=484 q=-0.0 size=N/A time=00:10:14.57 bitrate=N/A speed=20.2x    frame=15005 fps=485 q=-0.0 size=N/A time=00:10:25.83 bitrate=N/A speed=20.2x    frame=15261 fps=485 q=-0.0 size=N/A time=00:10:36.51 bitrate=N/A speed=20.2x    frame=15519 fps=485 q=-0.0 size=N/A time=00:10:47.27 bitrate=N/A speed=20.2x    frame=15763 fps=485 q=-0.0 size=N/A time=00:10:57.44 bitrate=N/A speed=20.2x    frame=16036 fps=486 q=-0.0 size=N/A time=00:11:08.83 bitrate=N/A speed=20.3x    frame=16303 fps=486 q=-0.0 size=N/A time=00:11:19.97 bitrate=N/A speed=20.3x    frame=16584 fps=487 q=-0.0 size=N/A time=00:11:31.69 bitrate=N/A speed=20.3x    frame=16841 fps=487 q=-0.0 size=N/A time=00:11:42.41 bitrate=N/A speed=20.3x    frame=17116 fps=488 q=-0.0 size=N/A time=00:11:53.87 bitrate=N/A speed=20.4x    frame=17393 fps=489 q=-0.0 size=N/A time=00:12:05.43 bitrate=N/A speed=20.4x    frame=17651 fps=489 q=-0.0 size=N/A time=00:12:16.19 bitrate=N/A speed=20.4x    frame=17920 fps=489 q=-0.0 size=N/A time=00:12:27.41 bitrate=N/A speed=20.4x    frame=18196 fps=490 q=-0.0 size=N/A time=00:12:38.92 bitrate=N/A speed=20.4x    frame=18485 fps=491 q=-0.0 size=N/A time=00:12:50.97 bitrate=N/A speed=20.5x    frame=18753 fps=492 q=-0.0 size=N/A time=00:13:02.15 bitrate=N/A speed=20.5x    frame=19036 fps=492 q=-0.0 size=N/A time=00:13:13.95 bitrate=N/A speed=20.5x    frame=19314 fps=493 q=-0.0 size=N/A time=00:13:25.55 bitrate=N/A speed=20.6x    frame=19596 fps=493 q=-0.0 size=N/A time=00:13:37.31 bitrate=N/A speed=20.6x    frame=19871 fps=494 q=-0.0 size=N/A time=00:13:48.78 bitrate=N/A speed=20.6x    frame=20131 fps=494 q=-0.0 size=N/A time=00:13:59.63 bitrate=N/A speed=20.6x    frame=20411 fps=495 q=-0.0 size=N/A time=00:14:11.30 bitrate=N/A speed=20.6x    frame=20681 fps=495 q=-0.0 size=N/A time=00:14:22.57 bitrate=N/A speed=20.7x    frame=20947 fps=495 q=-0.0 size=N/A time=00:14:33.66 bitrate=N/A speed=20.7x    frame=21218 fps=496 q=-0.0 size=N/A time=00:14:44.96 bitrate=N/A speed=20.7x    frame=21484 fps=496 q=-0.0 size=N/A time=00:14:56.06 bitrate=N/A speed=20.7x    frame=21762 fps=496 q=-0.0 size=N/A time=00:15:07.65 bitrate=N/A speed=20.7x    frame=22035 fps=497 q=-0.0 size=N/A time=00:15:19.04 bitrate=N/A speed=20.7x    frame=22301 fps=497 q=-0.0 size=N/A time=00:15:30.13 bitrate=N/A speed=20.7x    frame=22548 fps=497 q=-0.0 size=N/A time=00:15:40.43 bitrate=N/A speed=20.7x    frame=22796 fps=497 q=-0.0 size=N/A time=00:15:50.78 bitrate=N/A speed=20.7x    frame=23061 fps=497 q=-0.0 size=N/A time=00:16:01.83 bitrate=N/A speed=20.7x    frame=23318 fps=497 q=-0.0 size=N/A time=00:16:12.55 bitrate=N/A speed=20.7x    frame=23586 fps=497 q=-0.0 size=N/A time=00:16:23.73 bitrate=N/A speed=20.7x    frame=23851 fps=497 q=-0.0 size=N/A time=00:16:34.78 bitrate=N/A speed=20.7x    frame=24089 fps=497 q=-0.0 size=N/A time=00:16:44.71 bitrate=N/A speed=20.7x    frame=24344 fps=497 q=-0.0 size=N/A time=00:16:55.34 bitrate=N/A speed=20.7x    frame=24596 fps=497 q=-0.0 size=N/A time=00:17:05.85 bitrate=N/A speed=20.7x    frame=24865 fps=497 q=-0.0 size=N/A time=00:17:17.07 bitrate=N/A speed=20.7x    frame=25108 fps=497 q=-0.0 size=N/A time=00:17:27.21 bitrate=N/A speed=20.7x    frame=25386 fps=497 q=-0.0 size=N/A time=00:17:38.80 bitrate=N/A speed=20.7x    frame=25663 fps=498 q=-0.0 size=N/A time=00:17:50.36 bitrate=N/A speed=20.8x    frame=25914 fps=497 q=-0.0 size=N/A time=00:18:00.82 bitrate=N/A speed=20.7x    frame=26177 fps=497 q=-0.0 size=N/A time=00:18:11.79 bitrate=N/A speed=20.7x    frame=26421 fps=497 q=-0.0 size=N/A time=00:18:21.97 bitrate=N/A speed=20.7x    frame=26658 fps=497 q=-0.0 size=N/A time=00:18:31.86 bitrate=N/A speed=20.7x    frame=26877 fps=496 q=-0.0 size=N/A time=00:18:40.99 bitrate=N/A speed=20.7x    frame=27043 fps=495 q=-0.0 size=N/A time=00:18:47.91 bitrate=N/A speed=20.6x    frame=27255 fps=494 q=-0.0 size=N/A time=00:18:56.76 bitrate=N/A speed=20.6x    frame=27486 fps=493 q=-0.0 size=N/A time=00:19:06.39 bitrate=N/A speed=20.6x    frame=27714 fps=493 q=-0.0 size=N/A time=00:19:15.90 bitrate=N/A speed=20.6x    frame=27953 fps=493 q=-0.0 size=N/A time=00:19:25.87 bitrate=N/A speed=20.5x    frame=28194 fps=492 q=-0.0 size=N/A time=00:19:35.92 bitrate=N/A speed=20.5x    frame=28438 fps=492 q=-0.0 size=N/A time=00:19:46.10 bitrate=N/A speed=20.5x    frame=28688 fps=492 q=-0.0 size=N/A time=00:19:56.52 bitrate=N/A speed=20.5x    frame=28896 fps=491 q=-0.0 size=N/A time=00:20:05.20 bitrate=N/A speed=20.5x    frame=29145 fps=491 q=-0.0 size=N/A time=00:20:15.58 bitrate=N/A speed=20.5x    frame=29373 fps=491 q=-0.0 size=N/A time=00:20:25.09 bitrate=N/A speed=20.5x    frame=29597 fps=490 q=-0.0 size=N/A time=00:20:34.44 bitrate=N/A speed=20.5x    frame=29835 fps=490 q=-0.0 size=N/A time=00:20:44.36 bitrate=N/A speed=20.4x    frame=30091 fps=490 q=-0.0 size=N/A time=00:20:55.04 bitrate=N/A speed=20.4x    frame=30321 fps=490 q=-0.0 size=N/A time=00:21:04.63 bitrate=N/A speed=20.4x    frame=30552 fps=490 q=-0.0 size=N/A time=00:21:14.27 bitrate=N/A speed=20.4x    frame=30775 fps=489 q=-0.0 size=N/A time=00:21:23.57 bitrate=N/A speed=20.4x    frame=30998 fps=489 q=-0.0 size=N/A time=00:21:32.87 bitrate=N/A speed=20.4x    frame=31244 fps=488 q=-0.0 size=N/A time=00:21:43.13 bitrate=N/A speed=20.4x    frame=31488 fps=488 q=-0.0 size=N/A time=00:21:53.31 bitrate=N/A speed=20.4x    frame=31723 fps=488 q=-0.0 size=N/A time=00:22:03.11 bitrate=N/A speed=20.4x    frame=31976 fps=488 q=-0.0 size=N/A time=00:22:13.66 bitrate=N/A speed=20.4x    frame=32185 fps=488 q=-0.0 size=N/A time=00:22:22.38 bitrate=N/A speed=20.3x    frame=32307 fps=486 q=-0.0 size=N/A time=00:22:27.47 bitrate=N/A speed=20.3x    frame=32508 fps=485 q=-0.0 size=N/A time=00:22:35.85 bitrate=N/A speed=20.2x    frame=32726 fps=484 q=-0.0 size=N/A time=00:22:44.94 bitrate=N/A speed=20.2x    frame=32980 fps=484 q=-0.0 size=N/A time=00:22:55.54 bitrate=N/A speed=20.2x    frame=33235 fps=484 q=-0.0 size=N/A time=00:23:06.17 bitrate=N/A speed=20.2x    frame=33456 fps=484 q=-0.0 size=N/A time=00:23:15.39 bitrate=N/A speed=20.2x    frame=33693 fps=484 q=-0.0 size=N/A time=00:23:25.27 bitrate=N/A speed=20.2x    frame=33949 fps=484 q=-0.0 size=N/A time=00:23:35.95 bitrate=N/A speed=20.2x    frame=34118 fps=483 q=-0.0 size=N/A time=00:23:43.00 bitrate=N/A speed=20.1x    frame=34355 fps=483 q=-0.0 size=N/A time=00:23:52.88 bitrate=N/A speed=20.1x    [Parsed_psnr_10 @ 0000022122ef1d40] PSNR y:49.407040 u:51.425729 v:51.827640 average:50.027713 min:39.963360 max:inf
[out#0/null @ 0000022122685480] video:14800KiB audio:269572KiB subtitle:0KiB other streams:0KiB global headers:0KiB muxing overhead: unknown
frame=34443 fps=483 q=-0.0 Lsize=N/A time=00:23:56.56 bitrate=N/A speed=20.1x    
